<svg width="855" height="578" viewBox="0 0 855 578" fill="none" xmlns="http://www.w3.org/2000/svg">
<g clip-path="url(#clip0_5_2)">
<path d="M261.557 268H151.557V391H261.557V268Z" fill="#CCCCCC"/>
<path d="M95.557 576H39.557L33.557 528H101.557L95.557 576Z" fill="#E6E6E6"/>
<path d="M208.007 541.232L206.117 567.067C206.032 568.237 206.197 569.411 206.603 570.511C207.008 571.611 207.644 572.612 208.468 573.446C209.292 574.281 210.285 574.929 211.38 575.348C212.475 575.767 213.647 575.947 214.817 575.877L228.087 575.073C228.702 575.035 229.301 574.863 229.842 574.568C230.383 574.273 230.852 573.863 231.216 573.366C231.58 572.869 231.83 572.298 231.949 571.694C232.068 571.089 232.052 570.466 231.902 569.868L224.537 540.406L208.007 541.232Z" fill="#E6E6E6"/>
<path d="M319.003 556.509C334.62 560.163 345.777 565.356 353.106 572.384C355.716 574.867 359.131 576.331 362.729 576.509C367.326 576.751 371.084 576.236 373.909 574.974H373.909C374.633 574.655 375.258 574.148 375.719 573.506C376.181 572.864 376.462 572.111 376.534 571.323C376.619 570.523 376.489 569.715 376.157 568.982C375.825 568.25 375.303 567.619 374.645 567.156L337.606 540.802L321.873 547.096L318.202 550.766C317.805 551.163 317.505 551.648 317.327 552.18C317.148 552.713 317.096 553.28 317.173 553.837C317.251 554.393 317.456 554.924 317.774 555.388C318.091 555.852 318.512 556.236 319.003 556.509H319.003Z" fill="#E6E6E6"/>
<path d="M270.94 134.695L165.067 133.714C165.333 118.294 168.921 103.151 176.764 89.6005C181.914 80.701 181.803 71.0158 180.562 62.8561C178.646 50.2641 183.101 37.3806 192.999 29.3649C200.563 23.2286 210.11 20.0698 219.842 20.4836L221.897 20.5692C228.594 20.8475 235.113 22.8036 240.856 26.258C246.6 29.7123 251.383 34.5542 254.768 40.3391C258.208 46.5146 259.595 53.624 258.729 60.6398C258.058 67.2411 259.664 73.9096 263.42 80.6416C269.9 95.4242 271.303 114.34 270.94 134.695Z" fill="#2F2E41"/>
<path d="M341.775 542.176L320.996 547.597L219.813 327.161L226.137 542.176H205.358C183.154 441.018 143.067 324.27 161.09 287.41L268.597 281.086L341.775 542.176Z" fill="#008700"/>
<path d="M218.909 97.6913C234.376 97.6913 246.915 85.1525 246.915 69.6851C246.915 54.2177 234.376 41.6789 218.909 41.6789C203.442 41.6789 190.903 54.2177 190.903 69.6851C190.903 85.1525 203.442 97.6913 218.909 97.6913Z" fill="#FFB9B9"/>
<path d="M243.302 121.18L197.227 118.47C201.742 108.106 203.546 98.1264 201.744 88.657H236.074C235.996 95.9276 239.614 108.504 243.302 121.18Z" fill="#FFB9B9"/>
<path d="M272.211 289.217L171.028 296.445L181.417 117.115L199.034 112.146L218.909 116.663L238.784 106.725L251.432 111.243L272.211 289.217Z" fill="#008700"/>
<path d="M188.193 418.407L119.081 402.597C139.631 334.449 176.654 178.546 164.704 122.987L200.841 106.725L188.193 418.407Z" fill="#E6E6E6"/>
<path d="M154.766 221.46L128.567 205.199L150.91 139.759C153.402 133.007 158.175 127.337 164.404 123.731L171.931 119.373L167.414 185.323L154.766 221.46Z" fill="#E6E6E6"/>
<path d="M332.289 403.501C310.476 416.121 255.95 423.156 232.009 414.342C230.247 352.769 226.792 178.603 237.881 104.919L277.632 121.18L274.018 169.965C255.014 211.698 310.198 357.054 332.289 403.501Z" fill="#E6E6E6"/>
<path d="M329.127 213.33L304.734 205.199L272.211 168.158L277.632 121.18L331.837 197.068L329.127 213.33Z" fill="#E6E6E6"/>
<path d="M252.681 248.494C253.08 250.245 254.158 251.767 255.677 252.725C257.196 253.684 259.034 254 260.786 253.606L281.492 248.917L278.5 235.7L257.793 240.389C256.041 240.786 254.518 241.863 253.559 243.383C252.6 244.903 252.285 246.741 252.681 248.494V248.494Z" fill="#FFB9B9"/>
<path d="M243.302 62.4576C227.746 56.0611 212.382 55.5983 197.227 61.5542L190.903 38.9686H248.722L243.302 62.4576Z" fill="#2F2E41"/>
<path d="M271.308 233.205L283.052 254.887C302.806 249.378 319.926 232.008 336.354 211.523L331.837 197.068L303.831 204.295L271.308 233.205Z" fill="#E6E6E6"/>
<path d="M262.725 188.485H259.111C259.111 137.375 248.588 101.757 238.333 101.757L237.429 98.1429C246.626 98.1429 252.49 112.967 255.789 125.403C260.262 142.263 262.725 164.666 262.725 188.485Z" fill="#3F3D56"/>
<path d="M179.61 175.837H175.996C175.996 129.028 186.593 99.9498 202.196 99.9498L201.292 103.563C190.5 103.563 179.61 125.911 179.61 175.837Z" fill="#3F3D56"/>
<path d="M260.918 198.423C265.908 198.423 269.953 194.378 269.953 189.389C269.953 184.399 265.908 180.355 260.918 180.355C255.929 180.355 251.884 184.399 251.884 189.389C251.884 194.378 255.929 198.423 260.918 198.423Z" fill="#3F3D56"/>
<path d="M165.155 197.52H161.542C161.542 184.568 168.836 174.031 177.803 174.031V177.644C170.829 177.644 165.155 186.56 165.155 197.52Z" fill="#3F3D56"/>
<path d="M194.065 197.52H190.451C190.451 186.56 184.777 177.644 177.803 177.644V174.031C186.77 174.031 194.065 184.568 194.065 197.52Z" fill="#3F3D56"/>
<path d="M192.258 202.037C194.254 202.037 195.872 200.419 195.872 198.423C195.872 196.427 194.254 194.809 192.258 194.809C190.262 194.809 188.644 196.427 188.644 198.423C188.644 200.419 190.262 202.037 192.258 202.037Z" fill="#3F3D56"/>
<path d="M163.348 202.037C165.344 202.037 166.962 200.419 166.962 198.423C166.962 196.427 165.344 194.809 163.348 194.809C161.353 194.809 159.735 196.427 159.735 198.423C159.735 200.419 161.353 202.037 163.348 202.037Z" fill="#3F3D56"/>
<path d="M118.177 165.193L140.724 169.219L192.258 242.495L164.88 236.053L118.177 165.193Z" fill="#008700"/>
<path d="M114.178 164.296C113.834 164.301 113.498 164.398 113.205 164.578C112.912 164.757 112.673 165.012 112.512 165.316C112.351 165.619 112.275 165.961 112.291 166.304C112.308 166.647 112.416 166.98 112.604 167.267L160.776 240.355C161.045 240.763 161.46 241.053 161.936 241.165L184.349 246.438C184.727 246.527 185.123 246.499 185.484 246.358C185.846 246.217 186.156 245.969 186.373 245.647C186.591 245.325 186.705 244.945 186.702 244.557C186.698 244.169 186.576 243.791 186.353 243.474L133.464 168.272C133.321 168.067 133.138 167.892 132.927 167.758C132.716 167.624 132.481 167.532 132.235 167.489L114.539 164.329C114.42 164.307 114.299 164.296 114.178 164.296V164.296Z" fill="#3F3D56"/>
<path d="M144.227 216.553L145.566 230.038L166.693 227.941C168.481 227.764 170.125 226.883 171.264 225.493C172.403 224.103 172.944 222.317 172.766 220.529C172.589 218.741 171.708 217.096 170.318 215.957C168.928 214.819 167.142 214.278 165.354 214.456L144.227 216.553Z" fill="#FFB9B9"/>
<path d="M125.857 214.991C125.887 219.589 127.734 223.989 130.995 227.231C134.255 230.474 138.665 232.296 143.263 232.302H146.737L149.266 211.226L128.326 203.688L125.857 214.991Z" fill="#E6E6E6"/>
<path d="M854.557 0H442.557V217H854.557V0Z" fill="#E6E6E6"/>
<path d="M454.557 205H842.557V12H454.557V205Z" fill="white"/>
<path d="M474.523 125.909H478.727L488.614 150.057H488.955L498.841 125.909H503.045V155H499.75V132.898H499.466L490.375 155H487.193L478.102 132.898H477.818V155H474.523V125.909ZM518.802 155.455C516.7 155.455 514.886 154.991 513.362 154.062C511.846 153.125 510.677 151.818 509.853 150.142C509.039 148.456 508.631 146.496 508.631 144.261C508.631 142.027 509.039 140.057 509.853 138.352C510.677 136.638 511.823 135.303 513.29 134.347C514.768 133.381 516.491 132.898 518.461 132.898C519.597 132.898 520.719 133.087 521.827 133.466C522.935 133.845 523.944 134.46 524.853 135.312C525.762 136.155 526.487 137.273 527.026 138.665C527.566 140.057 527.836 141.771 527.836 143.807V145.227H511.018V142.33H524.427C524.427 141.098 524.181 140 523.688 139.034C523.205 138.068 522.514 137.306 521.614 136.747C520.724 136.188 519.673 135.909 518.461 135.909C517.126 135.909 515.97 136.241 514.995 136.903C514.029 137.557 513.286 138.409 512.765 139.46C512.244 140.511 511.984 141.638 511.984 142.841V144.773C511.984 146.42 512.268 147.817 512.836 148.963C513.414 150.099 514.214 150.966 515.237 151.562C516.259 152.15 517.448 152.443 518.802 152.443C519.683 152.443 520.478 152.32 521.188 152.074C521.908 151.818 522.528 151.439 523.049 150.938C523.57 150.426 523.972 149.792 524.256 149.034L527.495 149.943C527.154 151.042 526.581 152.008 525.776 152.841C524.971 153.665 523.977 154.309 522.793 154.773C521.61 155.227 520.279 155.455 518.802 155.455ZM541.174 155.455C539.356 155.455 537.751 154.995 536.359 154.077C534.967 153.149 533.878 151.842 533.092 150.156C532.306 148.461 531.913 146.458 531.913 144.148C531.913 141.856 532.306 139.867 533.092 138.182C533.878 136.496 534.971 135.194 536.373 134.276C537.774 133.357 539.394 132.898 541.231 132.898C542.651 132.898 543.773 133.134 544.597 133.608C545.431 134.072 546.065 134.602 546.501 135.199C546.946 135.786 547.291 136.269 547.538 136.648H547.822V125.909H551.174V155H547.935V151.648H547.538C547.291 152.045 546.941 152.547 546.487 153.153C546.032 153.75 545.383 154.285 544.54 154.759C543.698 155.223 542.576 155.455 541.174 155.455ZM541.629 152.443C542.973 152.443 544.11 152.093 545.038 151.392C545.966 150.682 546.671 149.702 547.154 148.452C547.637 147.192 547.879 145.739 547.879 144.091C547.879 142.462 547.642 141.037 547.168 139.815C546.695 138.584 545.994 137.628 545.066 136.946C544.138 136.255 542.992 135.909 541.629 135.909C540.208 135.909 539.024 136.274 538.077 137.003C537.14 137.723 536.434 138.703 535.961 139.943C535.497 141.174 535.265 142.557 535.265 144.091C535.265 145.644 535.502 147.055 535.975 148.324C536.458 149.583 537.168 150.587 538.106 151.335C539.053 152.074 540.227 152.443 541.629 152.443ZM557.779 155V133.182H561.131V155H557.779ZM559.484 129.545C558.83 129.545 558.267 129.323 557.793 128.878C557.329 128.433 557.097 127.898 557.097 127.273C557.097 126.648 557.329 126.113 557.793 125.668C558.267 125.223 558.83 125 559.484 125C560.137 125 560.696 125.223 561.16 125.668C561.633 126.113 561.87 126.648 561.87 127.273C561.87 127.898 561.633 128.433 561.16 128.878C560.696 129.323 560.137 129.545 559.484 129.545ZM576.135 155.455C574.089 155.455 572.328 154.972 570.851 154.006C569.374 153.04 568.237 151.709 567.442 150.014C566.646 148.319 566.249 146.383 566.249 144.205C566.249 141.989 566.656 140.033 567.47 138.338C568.294 136.634 569.44 135.303 570.908 134.347C572.385 133.381 574.108 132.898 576.078 132.898C577.612 132.898 578.995 133.182 580.226 133.75C581.457 134.318 582.465 135.114 583.251 136.136C584.037 137.159 584.525 138.352 584.714 139.716H581.362C581.107 138.722 580.538 137.841 579.658 137.074C578.786 136.297 577.612 135.909 576.135 135.909C574.828 135.909 573.682 136.25 572.697 136.932C571.722 137.604 570.96 138.556 570.411 139.787C569.871 141.009 569.601 142.443 569.601 144.091C569.601 145.777 569.866 147.244 570.396 148.494C570.936 149.744 571.694 150.715 572.669 151.406C573.654 152.098 574.809 152.443 576.135 152.443C577.006 152.443 577.797 152.292 578.507 151.989C579.217 151.686 579.819 151.25 580.311 150.682C580.804 150.114 581.154 149.432 581.362 148.636H584.714C584.525 149.924 584.056 151.084 583.308 152.116C582.57 153.139 581.589 153.954 580.368 154.56C579.156 155.156 577.745 155.455 576.135 155.455ZM596.036 155.511C594.653 155.511 593.398 155.251 592.271 154.73C591.144 154.2 590.25 153.438 589.587 152.443C588.924 151.439 588.592 150.227 588.592 148.807C588.592 147.557 588.839 146.544 589.331 145.767C589.823 144.981 590.482 144.366 591.305 143.92C592.129 143.475 593.038 143.144 594.033 142.926C595.036 142.699 596.045 142.519 597.058 142.386C598.384 142.216 599.459 142.088 600.283 142.003C601.116 141.908 601.722 141.752 602.101 141.534C602.489 141.316 602.683 140.937 602.683 140.398V140.284C602.683 138.883 602.3 137.794 601.533 137.017C600.775 136.241 599.625 135.852 598.081 135.852C596.481 135.852 595.226 136.203 594.317 136.903C593.408 137.604 592.768 138.352 592.399 139.148L589.217 138.011C589.786 136.686 590.543 135.653 591.49 134.915C592.446 134.167 593.488 133.646 594.615 133.352C595.751 133.049 596.869 132.898 597.967 132.898C598.668 132.898 599.473 132.983 600.382 133.153C601.301 133.314 602.186 133.651 603.038 134.162C603.9 134.673 604.615 135.445 605.183 136.477C605.751 137.509 606.036 138.892 606.036 140.625V155H602.683V152.045H602.513C602.286 152.519 601.907 153.026 601.376 153.565C600.846 154.105 600.141 154.564 599.26 154.943C598.379 155.322 597.304 155.511 596.036 155.511ZM596.547 152.5C597.873 152.5 598.99 152.24 599.899 151.719C600.818 151.198 601.509 150.526 601.973 149.702C602.446 148.878 602.683 148.011 602.683 147.102V144.034C602.541 144.205 602.229 144.361 601.746 144.503C601.272 144.635 600.723 144.754 600.098 144.858C599.482 144.953 598.881 145.038 598.294 145.114C597.716 145.18 597.248 145.237 596.888 145.284C596.017 145.398 595.202 145.582 594.445 145.838C593.696 146.084 593.09 146.458 592.626 146.96C592.172 147.453 591.945 148.125 591.945 148.977C591.945 150.142 592.375 151.023 593.237 151.619C594.108 152.206 595.212 152.5 596.547 152.5ZM615.506 125.909V155H612.154V125.909H615.506ZM633.351 155V125.909H650.908V129.034H636.874V138.864H649.999V141.989H636.874V151.875H651.135V155H633.351ZM659.303 133.182L664.53 142.102L669.757 133.182H673.621L666.575 144.091L673.621 155H669.757L664.53 146.534L659.303 155H655.439L662.371 144.091L655.439 133.182H659.303ZM686.369 155.455C684.324 155.455 682.563 154.972 681.085 154.006C679.608 153.04 678.472 151.709 677.676 150.014C676.881 148.319 676.483 146.383 676.483 144.205C676.483 141.989 676.89 140.033 677.705 138.338C678.528 136.634 679.674 135.303 681.142 134.347C682.619 133.381 684.343 132.898 686.312 132.898C687.847 132.898 689.229 133.182 690.46 133.75C691.691 134.318 692.7 135.114 693.486 136.136C694.272 137.159 694.759 138.352 694.949 139.716H691.597C691.341 138.722 690.773 137.841 689.892 137.074C689.021 136.297 687.847 135.909 686.369 135.909C685.063 135.909 683.917 136.25 682.932 136.932C681.956 137.604 681.194 138.556 680.645 139.787C680.105 141.009 679.835 142.443 679.835 144.091C679.835 145.777 680.1 147.244 680.631 148.494C681.17 149.744 681.928 150.715 682.903 151.406C683.888 152.098 685.044 152.443 686.369 152.443C687.241 152.443 688.031 152.292 688.741 151.989C689.452 151.686 690.053 151.25 690.545 150.682C691.038 150.114 691.388 149.432 691.597 148.636H694.949C694.759 149.924 694.291 151.084 693.543 152.116C692.804 153.139 691.824 153.954 690.602 154.56C689.39 155.156 687.979 155.455 686.369 155.455ZM708.997 155.455C706.895 155.455 705.081 154.991 703.557 154.062C702.042 153.125 700.872 151.818 700.048 150.142C699.234 148.456 698.827 146.496 698.827 144.261C698.827 142.027 699.234 140.057 700.048 138.352C700.872 136.638 702.018 135.303 703.486 134.347C704.963 133.381 706.687 132.898 708.656 132.898C709.793 132.898 710.915 133.087 712.023 133.466C713.131 133.845 714.139 134.46 715.048 135.312C715.957 136.155 716.682 137.273 717.222 138.665C717.761 140.057 718.031 141.771 718.031 143.807V145.227H701.213V142.33H714.622C714.622 141.098 714.376 140 713.884 139.034C713.401 138.068 712.709 137.306 711.81 136.747C710.92 136.188 709.868 135.909 708.656 135.909C707.321 135.909 706.166 136.241 705.19 136.903C704.224 137.557 703.481 138.409 702.96 139.46C702.439 140.511 702.179 141.638 702.179 142.841V144.773C702.179 146.42 702.463 147.817 703.031 148.963C703.609 150.099 704.409 150.966 705.432 151.562C706.455 152.15 707.643 152.443 708.997 152.443C709.878 152.443 710.673 152.32 711.384 152.074C712.103 151.818 712.723 151.439 713.244 150.938C713.765 150.426 714.168 149.792 714.452 149.034L717.69 149.943C717.349 151.042 716.777 152.008 715.972 152.841C715.167 153.665 714.172 154.309 712.989 154.773C711.805 155.227 710.474 155.455 708.997 155.455ZM726.483 125.909V155H723.131V125.909H726.483ZM735.975 125.909V155H732.623V125.909H735.975ZM751.263 155.455C749.161 155.455 747.347 154.991 745.822 154.062C744.307 153.125 743.138 151.818 742.314 150.142C741.5 148.456 741.092 146.496 741.092 144.261C741.092 142.027 741.5 140.057 742.314 138.352C743.138 136.638 744.284 135.303 745.751 134.347C747.229 133.381 748.952 132.898 750.922 132.898C752.058 132.898 753.18 133.087 754.288 133.466C755.396 133.845 756.405 134.46 757.314 135.312C758.223 136.155 758.947 137.273 759.487 138.665C760.027 140.057 760.297 141.771 760.297 143.807V145.227H743.479V142.33H756.888C756.888 141.098 756.642 140 756.149 139.034C755.666 138.068 754.975 137.306 754.075 136.747C753.185 136.188 752.134 135.909 750.922 135.909C749.587 135.909 748.431 136.241 747.456 136.903C746.49 137.557 745.747 138.409 745.226 139.46C744.705 140.511 744.445 141.638 744.445 142.841V144.773C744.445 146.42 744.729 147.817 745.297 148.963C745.875 150.099 746.675 150.966 747.697 151.562C748.72 152.15 749.909 152.443 751.263 152.443C752.143 152.443 752.939 152.32 753.649 152.074C754.369 151.818 754.989 151.439 755.51 150.938C756.031 150.426 756.433 149.792 756.717 149.034L759.956 149.943C759.615 151.042 759.042 152.008 758.237 152.841C757.432 153.665 756.438 154.309 755.254 154.773C754.071 155.227 752.74 155.455 751.263 155.455ZM768.749 141.875V155H765.396V133.182H768.635V136.591H768.919C769.43 135.483 770.207 134.593 771.249 133.92C772.29 133.239 773.635 132.898 775.283 132.898C776.76 132.898 778.053 133.201 779.161 133.807C780.268 134.403 781.13 135.312 781.746 136.534C782.361 137.746 782.669 139.28 782.669 141.136V155H779.317V141.364C779.317 139.65 778.872 138.314 777.982 137.358C777.091 136.392 775.87 135.909 774.317 135.909C773.247 135.909 772.29 136.141 771.447 136.605C770.614 137.069 769.956 137.746 769.473 138.636C768.99 139.527 768.749 140.606 768.749 141.875ZM797.658 155.455C795.613 155.455 793.852 154.972 792.374 154.006C790.897 153.04 789.761 151.709 788.965 150.014C788.17 148.319 787.772 146.383 787.772 144.205C787.772 141.989 788.179 140.033 788.994 138.338C789.817 136.634 790.963 135.303 792.431 134.347C793.908 133.381 795.632 132.898 797.602 132.898C799.136 132.898 800.518 133.182 801.749 133.75C802.98 134.318 803.989 135.114 804.775 136.136C805.561 137.159 806.049 138.352 806.238 139.716H802.886C802.63 138.722 802.062 137.841 801.181 137.074C800.31 136.297 799.136 135.909 797.658 135.909C796.352 135.909 795.206 136.25 794.221 136.932C793.246 137.604 792.483 138.556 791.934 139.787C791.394 141.009 791.124 142.443 791.124 144.091C791.124 145.777 791.389 147.244 791.92 148.494C792.46 149.744 793.217 150.715 794.192 151.406C795.177 152.098 796.333 152.443 797.658 152.443C798.53 152.443 799.32 152.292 800.031 151.989C800.741 151.686 801.342 151.25 801.835 150.682C802.327 150.114 802.677 149.432 802.886 148.636H806.238C806.049 149.924 805.58 151.084 804.832 152.116C804.093 153.139 803.113 153.954 801.891 154.56C800.679 155.156 799.268 155.455 797.658 155.455ZM820.286 155.455C818.184 155.455 816.371 154.991 814.846 154.062C813.331 153.125 812.161 151.818 811.337 150.142C810.523 148.456 810.116 146.496 810.116 144.261C810.116 142.027 810.523 140.057 811.337 138.352C812.161 136.638 813.307 135.303 814.775 134.347C816.252 133.381 817.976 132.898 819.945 132.898C821.082 132.898 822.204 133.087 823.312 133.466C824.42 133.845 825.428 134.46 826.337 135.312C827.246 136.155 827.971 137.273 828.511 138.665C829.05 140.057 829.32 141.771 829.32 143.807V145.227H812.502V142.33H825.911C825.911 141.098 825.665 140 825.173 139.034C824.69 138.068 823.998 137.306 823.099 136.747C822.209 136.188 821.157 135.909 819.945 135.909C818.61 135.909 817.455 136.241 816.479 136.903C815.513 137.557 814.77 138.409 814.249 139.46C813.728 140.511 813.468 141.638 813.468 142.841V144.773C813.468 146.42 813.752 147.817 814.32 148.963C814.898 150.099 815.698 150.966 816.721 151.562C817.744 152.15 818.932 152.443 820.286 152.443C821.167 152.443 821.962 152.32 822.673 152.074C823.392 151.818 824.013 151.439 824.533 150.938C825.054 150.426 825.457 149.792 825.741 149.034L828.979 149.943C828.638 151.042 828.066 152.008 827.261 152.841C826.456 153.665 825.461 154.309 824.278 154.773C823.094 155.227 821.763 155.455 820.286 155.455Z" fill="black"/>
<path d="M474.523 77V47.9091H478.045V73.875H491.568V77H474.523ZM505.716 77.4545C503.614 77.4545 501.8 76.9905 500.276 76.0625C498.76 75.125 497.591 73.8182 496.767 72.142C495.953 70.4564 495.545 68.4962 495.545 66.2614C495.545 64.0265 495.953 62.0568 496.767 60.3523C497.591 58.6383 498.737 57.303 500.205 56.3466C501.682 55.3807 503.405 54.8977 505.375 54.8977C506.511 54.8977 507.634 55.0871 508.741 55.4659C509.849 55.8447 510.858 56.4602 511.767 57.3125C512.676 58.1553 513.401 59.2727 513.94 60.6648C514.48 62.0568 514.75 63.7708 514.75 65.8068V67.2273H497.932V64.3295H511.341C511.341 63.0985 511.095 62 510.602 61.0341C510.119 60.0682 509.428 59.3059 508.528 58.7472C507.638 58.1884 506.587 57.9091 505.375 57.9091C504.04 57.9091 502.884 58.2405 501.909 58.9034C500.943 59.5568 500.2 60.4091 499.679 61.4602C499.158 62.5114 498.898 63.6383 498.898 64.8409V66.7727C498.898 68.4205 499.182 69.8172 499.75 70.9631C500.328 72.0994 501.128 72.9659 502.151 73.5625C503.173 74.1496 504.362 74.4432 505.716 74.4432C506.597 74.4432 507.392 74.3201 508.102 74.0739C508.822 73.8182 509.442 73.4394 509.963 72.9375C510.484 72.4261 510.886 71.7917 511.17 71.0341L514.409 71.9432C514.068 73.0417 513.495 74.0076 512.69 74.8409C511.885 75.6648 510.891 76.3087 509.707 76.7727C508.524 77.2273 507.193 77.4545 505.716 77.4545ZM526.27 77.5114C524.887 77.5114 523.633 77.2509 522.506 76.7301C521.379 76.1998 520.484 75.4375 519.821 74.4432C519.158 73.4394 518.827 72.2273 518.827 70.8068C518.827 69.5568 519.073 68.5436 519.565 67.767C520.058 66.9811 520.716 66.3655 521.54 65.9205C522.364 65.4754 523.273 65.1439 524.267 64.9261C525.271 64.6989 526.279 64.5189 527.293 64.3864C528.618 64.2159 529.693 64.0881 530.517 64.0028C531.35 63.9081 531.956 63.7519 532.335 63.5341C532.723 63.3163 532.918 62.9375 532.918 62.3977V62.2841C532.918 60.8826 532.534 59.7936 531.767 59.017C531.009 58.2405 529.859 57.8523 528.315 57.8523C526.715 57.8523 525.46 58.2027 524.551 58.9034C523.642 59.6042 523.003 60.3523 522.634 61.1477L519.452 60.0114C520.02 58.6856 520.777 57.6534 521.724 56.9148C522.681 56.1667 523.723 55.6458 524.849 55.3523C525.986 55.0492 527.103 54.8977 528.202 54.8977C528.902 54.8977 529.707 54.983 530.616 55.1534C531.535 55.3144 532.42 55.6506 533.273 56.1619C534.134 56.6733 534.849 57.4451 535.418 58.4773C535.986 59.5095 536.27 60.892 536.27 62.625V77H532.918V74.0455H532.747C532.52 74.5189 532.141 75.0256 531.611 75.5653C531.08 76.1051 530.375 76.5644 529.494 76.9432C528.614 77.322 527.539 77.5114 526.27 77.5114ZM526.781 74.5C528.107 74.5 529.224 74.2396 530.134 73.7188C531.052 73.1979 531.743 72.5256 532.207 71.7017C532.681 70.8778 532.918 70.0114 532.918 69.1023V66.0341C532.776 66.2045 532.463 66.3608 531.98 66.5028C531.507 66.6354 530.957 66.7538 530.332 66.858C529.717 66.9527 529.116 67.0379 528.528 67.1136C527.951 67.1799 527.482 67.2367 527.122 67.2841C526.251 67.3977 525.437 67.5824 524.679 67.8381C523.931 68.0843 523.325 68.4583 522.861 68.9602C522.406 69.4527 522.179 70.125 522.179 70.9773C522.179 72.142 522.61 73.0227 523.472 73.6193C524.343 74.2064 525.446 74.5 526.781 74.5ZM550.627 77.4545C548.809 77.4545 547.204 76.9953 545.812 76.0767C544.42 75.1487 543.331 73.8419 542.545 72.1562C541.759 70.4612 541.366 68.4583 541.366 66.1477C541.366 63.8561 541.759 61.8674 542.545 60.1818C543.331 58.4962 544.424 57.1941 545.826 56.2756C547.228 55.357 548.847 54.8977 550.684 54.8977C552.104 54.8977 553.227 55.1345 554.05 55.608C554.884 56.072 555.518 56.6023 555.954 57.1989C556.399 57.786 556.745 58.2689 556.991 58.6477H557.275V47.9091H560.627V77H557.388V73.6477H556.991C556.745 74.0455 556.394 74.5473 555.94 75.1534C555.485 75.75 554.836 76.285 553.994 76.7585C553.151 77.2225 552.029 77.4545 550.627 77.4545ZM551.082 74.4432C552.426 74.4432 553.563 74.0928 554.491 73.392C555.419 72.6818 556.124 71.7017 556.607 70.4517C557.09 69.1922 557.332 67.7386 557.332 66.0909C557.332 64.4621 557.095 63.0369 556.621 61.8153C556.148 60.5843 555.447 59.6278 554.519 58.946C553.591 58.2547 552.445 57.9091 551.082 57.9091C549.661 57.9091 548.478 58.2737 547.531 59.0028C546.593 59.7225 545.888 60.7027 545.414 61.9432C544.95 63.1742 544.718 64.5568 544.718 66.0909C544.718 67.6439 544.955 69.0549 545.428 70.3239C545.911 71.5833 546.621 72.5871 547.559 73.3352C548.506 74.0739 549.68 74.4432 551.082 74.4432ZM567.232 77V55.1818H570.585V77H567.232ZM568.937 51.5455C568.283 51.5455 567.72 51.3229 567.246 50.8778C566.782 50.4328 566.55 49.8977 566.55 49.2727C566.55 48.6477 566.782 48.1127 567.246 47.6676C567.72 47.2225 568.283 47 568.937 47C569.59 47 570.149 47.2225 570.613 47.6676C571.086 48.1127 571.323 48.6477 571.323 49.2727C571.323 49.8977 571.086 50.4328 570.613 50.8778C570.149 51.3229 569.59 51.5455 568.937 51.5455ZM580.077 63.875V77H576.724V55.1818H579.963V58.5909H580.247C580.759 57.483 581.535 56.5928 582.577 55.9205C583.618 55.2386 584.963 54.8977 586.611 54.8977C588.088 54.8977 589.381 55.2008 590.489 55.8068C591.597 56.4034 592.458 57.3125 593.074 58.5341C593.689 59.7462 593.997 61.2803 593.997 63.1364V77H590.645V63.3636C590.645 61.6496 590.2 60.3144 589.31 59.358C588.42 58.392 587.198 57.9091 585.645 57.9091C584.575 57.9091 583.618 58.1411 582.776 58.6051C581.942 59.0691 581.284 59.7462 580.801 60.6364C580.318 61.5265 580.077 62.6061 580.077 63.875ZM608.93 85.6364C607.31 85.6364 605.918 85.428 604.754 85.0114C603.589 84.6042 602.618 84.0644 601.842 83.392C601.075 82.7292 600.464 82.0189 600.009 81.2614L602.68 79.3864C602.983 79.7841 603.366 80.2386 603.83 80.75C604.294 81.2708 604.929 81.7206 605.734 82.0994C606.548 82.4877 607.613 82.6818 608.93 82.6818C610.691 82.6818 612.145 82.2557 613.29 81.4034C614.436 80.5511 615.009 79.2159 615.009 77.3977V72.9659H614.725C614.479 73.3636 614.129 73.8561 613.674 74.4432C613.229 75.0208 612.585 75.5369 611.742 75.9915C610.909 76.4366 609.782 76.6591 608.362 76.6591C606.6 76.6591 605.019 76.2424 603.617 75.4091C602.225 74.5758 601.122 73.3636 600.308 71.7727C599.503 70.1818 599.1 68.25 599.1 65.9773C599.1 63.7424 599.493 61.7964 600.279 60.1392C601.065 58.4725 602.159 57.1847 603.56 56.2756C604.962 55.357 606.581 54.8977 608.418 54.8977C609.839 54.8977 610.966 55.1345 611.799 55.608C612.642 56.072 613.286 56.6023 613.731 57.1989C614.185 57.786 614.536 58.2689 614.782 58.6477H615.123V55.1818H618.362V77.625C618.362 79.5 617.935 81.0246 617.083 82.1989C616.24 83.3826 615.104 84.2491 613.674 84.7983C612.254 85.357 610.672 85.6364 608.93 85.6364ZM608.816 73.6477C610.161 73.6477 611.297 73.34 612.225 72.7244C613.153 72.1089 613.859 71.2235 614.342 70.0682C614.825 68.9129 615.066 67.5303 615.066 65.9205C615.066 64.3485 614.829 62.9612 614.356 61.7585C613.882 60.5559 613.182 59.6136 612.254 58.9318C611.326 58.25 610.18 57.9091 608.816 57.9091C607.396 57.9091 606.212 58.2689 605.265 58.9886C604.327 59.7083 603.622 60.6742 603.148 61.8864C602.684 63.0985 602.452 64.4432 602.452 65.9205C602.452 67.4356 602.689 68.7756 603.163 69.9403C603.646 71.0956 604.356 72.0047 605.293 72.6676C606.24 73.321 607.415 73.6477 608.816 73.6477ZM645.237 55.1818V58.0227H633.93V55.1818H645.237ZM637.225 49.9545H640.577V70.75C640.577 71.697 640.715 72.4072 640.989 72.8807C641.273 73.3447 641.633 73.6572 642.069 73.8182C642.514 73.9697 642.983 74.0455 643.475 74.0455C643.844 74.0455 644.147 74.0265 644.384 73.9886C644.621 73.9413 644.81 73.9034 644.952 73.875L645.634 76.8864C645.407 76.9716 645.09 77.0568 644.683 77.142C644.275 77.2367 643.759 77.2841 643.134 77.2841C642.187 77.2841 641.259 77.0805 640.35 76.6733C639.451 76.2661 638.702 75.6458 638.106 74.8125C637.519 73.9792 637.225 72.928 637.225 71.6591V49.9545ZM654.1 63.875V77H650.748V47.9091H654.1V58.5909H654.384C654.896 57.464 655.663 56.5691 656.685 55.9062C657.718 55.2339 659.091 54.8977 660.805 54.8977C662.291 54.8977 663.594 55.196 664.711 55.7926C665.828 56.3797 666.695 57.2841 667.31 58.5057C667.935 59.7178 668.248 61.2614 668.248 63.1364V77H664.896V63.3636C664.896 61.6307 664.446 60.2907 663.546 59.3438C662.656 58.3873 661.42 57.9091 659.839 57.9091C658.74 57.9091 657.755 58.1411 656.884 58.6051C656.022 59.0691 655.341 59.7462 654.839 60.6364C654.346 61.5265 654.1 62.6061 654.1 63.875ZM683.528 77.4545C681.426 77.4545 679.613 76.9905 678.088 76.0625C676.573 75.125 675.403 73.8182 674.58 72.142C673.765 70.4564 673.358 68.4962 673.358 66.2614C673.358 64.0265 673.765 62.0568 674.58 60.3523C675.403 58.6383 676.549 57.303 678.017 56.3466C679.494 55.3807 681.218 54.8977 683.188 54.8977C684.324 54.8977 685.446 55.0871 686.554 55.4659C687.662 55.8447 688.67 56.4602 689.58 57.3125C690.489 58.1553 691.213 59.2727 691.753 60.6648C692.293 62.0568 692.562 63.7708 692.562 65.8068V67.2273H675.744V64.3295H689.153C689.153 63.0985 688.907 62 688.415 61.0341C687.932 60.0682 687.241 59.3059 686.341 58.7472C685.451 58.1884 684.4 57.9091 683.188 57.9091C681.852 57.9091 680.697 58.2405 679.722 58.9034C678.756 59.5568 678.012 60.4091 677.491 61.4602C676.971 62.5114 676.71 63.6383 676.71 64.8409V66.7727C676.71 68.4205 676.994 69.8172 677.562 70.9631C678.14 72.0994 678.94 72.9659 679.963 73.5625C680.986 74.1496 682.174 74.4432 683.528 74.4432C684.409 74.4432 685.205 74.3201 685.915 74.0739C686.634 73.8182 687.255 73.4394 687.776 72.9375C688.296 72.4261 688.699 71.7917 688.983 71.0341L692.222 71.9432C691.881 73.0417 691.308 74.0076 690.503 74.8409C689.698 75.6648 688.704 76.3087 687.52 76.7727C686.336 77.2273 685.006 77.4545 683.528 77.4545ZM713.855 77L707.207 55.1818H710.73L715.446 71.8864H715.673L720.332 55.1818H723.912L728.514 71.8295H728.741L733.457 55.1818H736.98L730.332 77H727.037L722.264 60.2386H721.923L717.151 77H713.855ZM747.832 77.5114C746.45 77.5114 745.195 77.2509 744.068 76.7301C742.941 76.1998 742.046 75.4375 741.384 74.4432C740.721 73.4394 740.389 72.2273 740.389 70.8068C740.389 69.5568 740.635 68.5436 741.128 67.767C741.62 66.9811 742.278 66.3655 743.102 65.9205C743.926 65.4754 744.835 65.1439 745.83 64.9261C746.833 64.6989 747.842 64.5189 748.855 64.3864C750.181 64.2159 751.256 64.0881 752.08 64.0028C752.913 63.9081 753.519 63.7519 753.898 63.5341C754.286 63.3163 754.48 62.9375 754.48 62.3977V62.2841C754.48 60.8826 754.097 59.7936 753.33 59.017C752.572 58.2405 751.421 57.8523 749.878 57.8523C748.277 57.8523 747.023 58.2027 746.114 58.9034C745.205 59.6042 744.565 60.3523 744.196 61.1477L741.014 60.0114C741.582 58.6856 742.34 57.6534 743.287 56.9148C744.243 56.1667 745.285 55.6458 746.412 55.3523C747.548 55.0492 748.666 54.8977 749.764 54.8977C750.465 54.8977 751.27 54.983 752.179 55.1534C753.098 55.3144 753.983 55.6506 754.835 56.1619C755.697 56.6733 756.412 57.4451 756.98 58.4773C757.548 59.5095 757.832 60.892 757.832 62.625V77H754.48V74.0455H754.31C754.082 74.5189 753.704 75.0256 753.173 75.5653C752.643 76.1051 751.938 76.5644 751.057 76.9432C750.176 77.322 749.101 77.5114 747.832 77.5114ZM748.344 74.5C749.67 74.5 750.787 74.2396 751.696 73.7188C752.615 73.1979 753.306 72.5256 753.77 71.7017C754.243 70.8778 754.48 70.0114 754.48 69.1023V66.0341C754.338 66.2045 754.026 66.3608 753.543 66.5028C753.069 66.6354 752.52 66.7538 751.895 66.858C751.279 66.9527 750.678 67.0379 750.091 67.1136C749.513 67.1799 749.045 67.2367 748.685 67.2841C747.813 67.3977 746.999 67.5824 746.241 67.8381C745.493 68.0843 744.887 68.4583 744.423 68.9602C743.969 69.4527 743.741 70.125 743.741 70.9773C743.741 72.142 744.172 73.0227 745.034 73.6193C745.905 74.2064 747.009 74.5 748.344 74.5ZM765.329 85.1818C764.761 85.1818 764.254 85.1345 763.809 85.0398C763.364 84.9545 763.056 84.8693 762.886 84.7841L763.738 81.8295C764.552 82.0379 765.272 82.1136 765.897 82.0568C766.522 82 767.076 81.7206 767.559 81.2188C768.051 80.7263 768.501 79.9261 768.908 78.8182L769.533 77.1136L761.465 55.1818H765.102L771.124 72.5682H771.352L777.374 55.1818H781.011L771.749 80.1818C771.333 81.3087 770.817 82.2415 770.201 82.9801C769.585 83.7282 768.871 84.2822 768.056 84.642C767.251 85.0019 766.342 85.1818 765.329 85.1818ZM796.685 77V55.1818H800.038V77H796.685ZM798.39 51.5455C797.737 51.5455 797.173 51.3229 796.7 50.8778C796.236 50.4328 796.004 49.8977 796.004 49.2727C796.004 48.6477 796.236 48.1127 796.7 47.6676C797.173 47.2225 797.737 47 798.39 47C799.043 47 799.602 47.2225 800.066 47.6676C800.54 48.1127 800.776 48.6477 800.776 49.2727C800.776 49.8977 800.54 50.4328 800.066 50.8778C799.602 51.3229 799.043 51.5455 798.39 51.5455ZM809.53 63.875V77H806.178V55.1818H809.416V58.5909H809.7C810.212 57.483 810.988 56.5928 812.03 55.9205C813.071 55.2386 814.416 54.8977 816.064 54.8977C817.541 54.8977 818.834 55.2008 819.942 55.8068C821.05 56.4034 821.911 57.3125 822.527 58.5341C823.143 59.7462 823.45 61.2803 823.45 63.1364V77H820.098V63.3636C820.098 61.6496 819.653 60.3144 818.763 59.358C817.873 58.392 816.651 57.9091 815.098 57.9091C814.028 57.9091 813.071 58.1411 812.229 58.6051C811.395 59.0691 810.737 59.7462 810.254 60.6364C809.771 61.5265 809.53 62.6061 809.53 63.875Z" fill="black"/>
<path d="M25.1764 510.243C39.5961 529.554 69.5284 531.587 69.5284 531.587C69.5284 531.587 76.082 502.31 61.6623 482.999C47.2427 463.688 17.3103 461.655 17.3103 461.655C17.3103 461.655 10.7568 490.932 25.1764 510.243Z" fill="#E6E6E6"/>
<path d="M98.6331 517.503C89.1181 530.245 69.3666 531.587 69.3666 531.587C69.3666 531.587 65.0421 512.268 74.5572 499.525C84.0723 486.782 103.824 485.441 103.824 485.441C103.824 485.441 108.148 504.76 98.6331 517.503Z" fill="#E6E6E6"/>
<path d="M519.557 575.656H0V577.897H519.557V575.656Z" fill="#3F3D56"/>
</g>
<defs>
<clipPath id="clip0_5_2">
<rect width="854.557" height="577.897" fill="white"/>
</clipPath>
</defs>
</svg>
